<svg xmlns="http://www.w3.org/2000/svg" width="410" height="404" viewBox="0 0 410 404" fill="none">
  <path d="M399.641 59.5246L215.643 388.545C211.844 395.338 202.246 395.384 198.382 388.628L10.5817 59.5563C6.38087 52.1982 12.6802 43.2665 21.0281 44.7586L205.223 77.6824C206.398 77.8924 207.601 77.8905 208.776 77.6767L389.119 44.8058C397.439 43.2894 403.768 52.1434 399.63 59.5153L399.641 59.5246Z" fill="url(#paint0_linear)"/>
  <path d="M292.965 1.5744L156.801 28.2552C154.563 28.6937 152.806 30.3922 152.36 32.6391L121.006 192.009C120.39 195.121 123.166 197.865 126.24 197.214L171.736 187.692C174.969 187.01 177.978 189.611 177.563 192.889L170.277 251.069C169.851 254.427 172.987 257.08 176.251 256.244L203.02 249.485C206.29 248.648 209.431 251.309 208.999 254.671L198.336 336.493C197.681 341.605 204.561 344.253 207.307 339.868L209.5 336.4L323.654 102.072C325.129 98.999 322.541 95.4651 319.16 96.1285L272.874 105.123C269.585 105.77 266.844 102.998 267.51 99.7265L298.215  -0.00848389C298.882 -3.28304 296.137 -6.05885 292.844 -5.3981L292.965 1.5744Z" fill="url(#paint1_linear)"/>
  <defs>
    <linearGradient id="paint0_linear" x1="6.00017" y1="32.9999" x2="235" y2="344" gradientUnits="userSpaceOnUse">
      <stop stop-color="#41D1FF"/>
      <stop offset="1" stop-color="#BD34FE"/>
    </linearGradient>
    <linearGradient id="paint1_linear" x1="194.651" y1="8.81818" x2="236.076" y2="292.989" gradientUnits="userSpaceOnUse">
      <stop stop-color="#FFEA83"/>
      <stop offset="0.0833333" stop-color="#FFDD35"/>
      <stop offset="1" stop-color="#FFA800"/>
    </linearGradient>
  </defs>
</svg>

